<svg width="1334" height="307" viewBox="0 0 1334 307" fill="none" xmlns="http://www.w3.org/2000/svg">
<path d="M479.793 118.754C468.764 118.754 458.829 120.668 449.988 124.496C441.238 128.233 433.764 133.702 427.566 140.902C421.46 148.012 416.766 156.625 413.484 166.742C410.203 176.859 408.562 188.253 408.562 200.922C408.562 217.693 411.16 232.276 416.355 244.672C421.642 256.977 429.48 266.501 439.871 273.246C450.353 279.991 463.432 283.363 479.109 283.363C488.042 283.363 496.427 282.634 504.266 281.176C512.195 279.626 519.897 277.712 527.371 275.434V295.668C520.079 298.402 512.423 300.408 504.402 301.684C496.382 303.051 486.857 303.734 475.828 303.734C455.503 303.734 438.504 299.542 424.832 291.156C411.251 282.68 401.043 270.74 394.207 255.336C387.462 239.932 384.09 221.749 384.09 200.785C384.09 185.655 386.186 171.846 390.379 159.359C394.663 146.781 400.861 135.935 408.973 126.82C417.176 117.706 427.202 110.688 439.051 105.766C450.991 100.753 464.663 98.2461 480.066 98.2461C490.184 98.2461 499.936 99.2487 509.324 101.254C518.712 103.259 527.189 106.13 534.754 109.867L525.457 129.555C519.077 126.638 512.059 124.132 504.402 122.035C496.837 119.848 488.634 118.754 479.793 118.754ZM589.988 88.2656V151.84C589.988 155.486 589.897 159.177 589.715 162.914C589.533 166.56 589.214 169.932 588.758 173.031H590.262C593.361 167.745 597.28 163.324 602.02 159.77C606.85 156.124 612.319 153.389 618.426 151.566C624.533 149.652 631.004 148.695 637.84 148.695C649.871 148.695 659.897 150.609 667.918 154.438C676.03 158.266 682.091 164.19 686.102 172.211C690.203 180.232 692.254 190.622 692.254 203.383V301H669.832V204.887C669.832 192.4 666.961 183.057 661.219 176.859C655.568 170.661 646.863 167.562 635.105 167.562C623.986 167.562 615.099 169.704 608.445 173.988C601.883 178.181 597.143 184.379 594.227 192.582C591.401 200.785 589.988 210.811 589.988 222.66V301H567.293V88.2656H589.988ZM795.066 148.695C812.931 148.695 826.193 152.706 834.852 160.727C843.51 168.747 847.84 181.553 847.84 199.145V301H831.297L826.922 278.852H825.828C821.635 284.32 817.26 288.923 812.703 292.66C808.146 296.306 802.859 299.086 796.844 301C790.919 302.823 783.628 303.734 774.969 303.734C765.854 303.734 757.742 302.139 750.633 298.949C743.615 295.759 738.055 290.928 733.953 284.457C729.943 277.986 727.938 269.783 727.938 259.848C727.938 244.9 733.862 233.415 745.711 225.395C757.56 217.374 775.607 212.999 799.852 212.27L825.691 211.176V202.016C825.691 189.073 822.911 180.004 817.352 174.809C811.792 169.613 803.953 167.016 793.836 167.016C785.997 167.016 778.523 168.155 771.414 170.434C764.305 172.712 757.56 175.401 751.18 178.5L744.207 161.273C750.952 157.81 758.699 154.848 767.449 152.387C776.199 149.926 785.405 148.695 795.066 148.695ZM825.418 227.172L802.586 228.129C783.901 228.858 770.73 231.911 763.074 237.289C755.418 242.667 751.59 250.277 751.59 260.121C751.59 268.689 754.188 275.023 759.383 279.125C764.578 283.227 771.46 285.277 780.027 285.277C793.335 285.277 804.227 281.586 812.703 274.203C821.18 266.82 825.418 255.746 825.418 240.98V227.172ZM991.531 259.984C991.531 269.555 989.116 277.621 984.285 284.184C979.546 290.655 972.71 295.531 963.777 298.812C954.936 302.094 944.363 303.734 932.059 303.734C921.577 303.734 912.508 302.914 904.852 301.273C897.195 299.633 890.496 297.309 884.754 294.301V273.383C890.861 276.391 898.152 279.125 906.629 281.586C915.105 284.047 923.764 285.277 932.605 285.277C945.548 285.277 954.936 283.181 960.77 278.988C966.603 274.796 969.52 269.099 969.52 261.898C969.52 257.797 968.335 254.197 965.965 251.098C963.686 247.908 959.812 244.854 954.344 241.938C948.875 238.93 941.31 235.648 931.648 232.094C922.078 228.448 913.784 224.848 906.766 221.293C899.839 217.647 894.461 213.227 890.633 208.031C886.896 202.836 885.027 196.091 885.027 187.797C885.027 175.128 890.132 165.421 900.34 158.676C910.639 151.84 924.129 148.422 940.809 148.422C949.832 148.422 958.263 149.333 966.102 151.156C974.031 152.888 981.414 155.258 988.25 158.266L980.594 176.449C974.396 173.806 967.788 171.573 960.77 169.75C953.751 167.927 946.596 167.016 939.305 167.016C928.823 167.016 920.757 168.747 915.105 172.211C909.546 175.674 906.766 180.414 906.766 186.43C906.766 191.078 908.042 194.906 910.594 197.914C913.237 200.922 917.43 203.747 923.172 206.391C928.914 209.034 936.479 212.133 945.867 215.688C955.255 219.151 963.367 222.751 970.203 226.488C977.039 230.134 982.28 234.6 985.926 239.887C989.663 245.082 991.531 251.781 991.531 259.984ZM1190.73 148.422C1207.23 148.422 1219.67 152.751 1228.05 161.41C1236.44 169.978 1240.63 183.786 1240.63 202.836V301H1218.21V203.93C1218.21 191.807 1215.57 182.738 1210.28 176.723C1205.09 170.616 1197.34 167.562 1187.04 167.562C1172.55 167.562 1162.02 171.755 1155.46 180.141C1148.89 188.526 1145.61 200.876 1145.61 217.191V301H1123.05V203.93C1123.05 195.818 1121.87 189.073 1119.5 183.695C1117.22 178.318 1113.76 174.307 1109.11 171.664C1104.55 168.93 1098.76 167.562 1091.75 167.562C1081.81 167.562 1073.84 169.613 1067.82 173.715C1061.8 177.816 1057.43 183.923 1054.7 192.035C1052.05 200.056 1050.73 209.945 1050.73 221.703V301H1028.04V151.156H1046.36L1049.77 172.348H1051C1054.01 167.152 1057.79 162.777 1062.35 159.223C1066.91 155.668 1072.01 152.979 1077.66 151.156C1083.32 149.333 1089.33 148.422 1095.71 148.422C1107.1 148.422 1116.63 150.564 1124.29 154.848C1132.03 159.04 1137.64 165.466 1141.1 174.125H1142.33C1147.25 165.466 1154 159.04 1162.57 154.848C1171.13 150.564 1180.52 148.422 1190.73 148.422Z" fill="#E0BC8C"/>
<g clip-path="url(#clip0_2_9)">
<path d="M0 0L116.168 0.46283L132.933 58.1895L137.448 42.8897L156.51 106.346L169.301 60.6977L176.575 73.2386L188.614 0H307V307H0V0Z" fill="#E0BC8C"/>
<path d="M71.3123 165.444H91.6586L105.549 239.42H105.8L122.494 165.444H141.526L156.605 240.328H156.901L172.733 165.444H192.688L166.758 274.143H146.567L131.614 200.167H131.222L115.215 274.143H94.6483L71.3123 165.444ZM215.627 165.444H247.702L279.556 274.143H258.567L251.64 249.954H215.101L209.753 274.143H189.312L215.627 165.444ZM227.837 192.236L218.963 232.116H246.583L236.395 192.236H227.837Z" fill="white"/>
</g>
<defs>
<clipPath id="clip0_2_9">
<rect width="307" height="307" fill="white"/>
</clipPath>
</defs>
</svg>
